<?xml version="1.0" encoding="UTF-8"?>
<svg width="38px" height="38px" viewBox="0 0 38 38" version="1.1" xmlns="http://www.w3.org/2000/svg" xmlns:xlink="http://www.w3.org/1999/xlink">
    <!-- Generator: Sketch 48.2 (47327) - http://www.bohemiancoding.com/sketch -->
    <title>ic_behance</title>
    <desc>Created with Sketch.</desc>
    <defs>
        <polygon id="path-1" points="0 0 34 0 34 21.25 0 21.25"></polygon>
    </defs>
    <g id="Main" stroke="none" stroke-width="1" fill="none" fill-rule="evenodd">
        <g id="ic_behance">
            <g id="Page-1-Copy" transform="translate(2.000000, 8.000000)">
                <mask id="mask-2" fill="white">
                    <use xlink:href="#path-1"></use>
                </mask>
                <g id="Clip-2"></g>
                <path d="M15.5983958,2.20929167 C16.2401535,3.09116667 16.5617407,4.14375 16.5617407,5.37270833 C16.5617407,6.636375 16.2401535,7.656375 15.590604,8.425625 C15.2265163,8.85558333 14.6931349,9.24941667 13.9876264,9.605 C15.0586393,9.99104167 15.866149,10.6009167 16.4158222,11.434625 C16.9598288,12.267625 17.2339571,13.2805417 17.2339571,14.4719583 C17.2339571,15.7002083 16.9222867,16.8030833 16.2961125,17.77775 C15.9001494,18.4223333 15.4050184,18.9670417 14.8085946,19.4083333 C14.1392116,19.9155 13.3494104,20.2604583 12.4363578,20.4495833 C11.5225968,20.6372917 10.5351683,20.7279583 9.46769709,20.7279583 L0,20.7279583 L0,0 L10.153372,0 C12.7161528,0.03825 14.5287996,0.7735 15.5983958,2.20929167 Z M4.18771698,3.59975 L4.18771698,8.17275 L9.29698671,8.17275 C10.207206,8.17275 10.9488399,8.00133333 11.5204718,7.6585 C12.0878536,7.31495833 12.3740237,6.70791667 12.3740237,5.8395 C12.3740237,4.87191667 11.9978942,4.23441667 11.2463435,3.92275 C10.594669,3.708125 9.76732569,3.59975 8.76148027,3.59975 L4.18771698,3.59975 Z M4.18771698,11.6025 L4.18771698,17.1303333 L9.28919495,17.1303333 C10.2008309,17.1303333 10.9127145,17.0085 11.4184705,16.7655417 C12.3400233,16.3122083 12.7997371,15.4522917 12.7997371,14.178 C12.7997371,13.0977917 12.3563151,12.3582917 11.4623877,11.953125 C10.9630067,11.7285833 10.26104,11.6102917 9.36144582,11.6025 L4.18771698,11.6025 Z M29.935943,5.712 C31.0211227,6.18941667 31.9150501,6.94591667 32.6184336,7.979375 C33.2608996,8.891 33.6724463,9.94783333 33.8601568,11.1491667 C33.9706582,11.851125 34.013867,12.8682917 33.9961585,14.1921667 L22.6754391,14.1921667 C22.7434399,15.7278333 23.2789464,16.8073333 24.3025003,17.4242917 C24.9222995,17.8089167 25.6681834,18.0022917 26.5436939,18.0022917 C27.4652467,18.0022917 28.2182141,17.767125 28.7969293,17.3003333 C29.1142665,17.0460417 29.3947699,16.6947083 29.6334811,16.2449167 L33.7822392,16.2449167 C33.6724463,17.1522917 33.1688152,18.077375 32.2770128,19.0159167 C30.8858294,20.5055417 28.9364727,21.25 26.4317759,21.25 C24.3627094,21.25 22.5373125,20.6238333 20.9598352,19.365125 C19.3745661,18.10925 18.5875983,16.0614583 18.5875983,13.2295417 C18.5875983,10.5732917 19.3008986,8.536125 20.7260824,7.11804167 C22.1555162,5.70420833 24.0042884,4.991625 26.2816075,4.991625 C27.6352487,4.991625 28.8528883,5.23245833 29.935943,5.712 Z M23.85837,9.17504167 C23.2853215,9.75870833 22.9233588,10.5492083 22.7753153,11.54725 L29.7786911,11.54725 C29.7043152,10.482625 29.3402275,9.67795833 28.6963448,9.12333333 C28.0446703,8.57295833 27.2428273,8.29954167 26.2837325,8.29954167 C25.2438867,8.29954167 24.4328352,8.591375 23.85837,9.17504167 Z M21.7255527,3.546625 L30.7292859,3.546625 L30.7292859,0.966875 L21.7255527,0.966875 L21.7255527,3.546625 Z" id="Fill-1" fill="#000000" mask="url(#mask-2)"></path>
            </g>
        </g>
    </g>
</svg>