<?xml version="1.0" encoding="UTF-8"?>
<svg width="38px" height="38px" viewBox="0 0 38 38" version="1.1" xmlns="http://www.w3.org/2000/svg" xmlns:xlink="http://www.w3.org/1999/xlink">
    <!-- Generator: Sketch 48.2 (47327) - http://www.bohemiancoding.com/sketch -->
    <title>ic_dribbble</title>
    <desc>Created with Sketch.</desc>
    <defs>
        <polygon id="path-1" points="0 0 30 0 30 30 0 30"></polygon>
    </defs>
    <g id="Main" stroke="none" stroke-width="1" fill="none" fill-rule="evenodd">
        <g id="ic_dribbble">
            <g id="Page-1-Copy-2" transform="translate(4.000000, 4.000000)">
                <mask id="mask-2" fill="white">
                    <use xlink:href="#path-1"></use>
                </mask>
                <g id="Clip-2"></g>
                <path d="M29.6967391,11.9817391 C29.4984783,11.0184783 29.2023913,10.0676087 28.8195652,9.16173913 C28.4458696,8.27282609 27.9782609,7.41521739 27.4369565,6.615 C26.9021739,5.82065217 26.2852174,5.07326087 25.6076087,4.39565217 C24.9280435,3.71673913 24.1826087,3.10108696 23.3863043,2.565 C22.586087,2.02173913 21.7284783,1.55804348 20.8395652,1.18043478 C19.9323913,0.799565217 18.9834783,0.502826087 18.0208696,0.307173913 C17.0328261,0.104347826 16.0167391,0 15.0006522,0 C13.9826087,0 12.9671739,0.104347826 11.9791304,0.307173913 C11.0158696,0.502826087 10.0669565,0.799565217 9.16043478,1.18043478 C8.27086957,1.55804348 7.41391304,2.02173913 6.61173913,2.565 C5.8173913,3.10108696 5.07130435,3.71673913 4.3923913,4.39565217 C3.71478261,5.07326087 3.09913043,5.82065217 2.56304348,6.615 C2.02108696,7.41521739 1.55413043,8.27282609 1.17978261,9.16173913 C0.795652174,10.0676087 0.500869565,11.0184783 0.30326087,11.9817391 C0.102391304,12.9678261 0,13.9832609 0,14.9993478 C0,16.0193478 0.102391304,17.0354348 0.30326087,18.0228261 C0.500869565,18.986087 0.795652174,19.935 1.17978261,20.8395652 C1.55413043,21.7284783 2.02108696,22.5886957 2.56304348,23.3902174 C3.09913043,24.1832609 3.71478261,24.9280435 4.3923913,25.608913 C5.07130435,26.2858696 5.8173913,26.9002174 6.61173913,27.4376087 C7.41391304,27.9795652 8.27086957,28.4452174 9.16043478,28.8208696 C10.0669565,29.205 11.0158696,29.4978261 11.9791304,29.6934783 C12.9671739,29.8982609 13.9826087,30 15.0006522,30 C16.0167391,30 17.0328261,29.8982609 18.0208696,29.6934783 C18.9834783,29.4978261 19.9323913,29.205 20.8395652,28.8208696 C21.7284783,28.4452174 22.586087,27.9795652 23.3863043,27.4376087 C24.1826087,26.9002174 24.9280435,26.2858696 25.6076087,25.608913 C26.2852174,24.9280435 26.9021739,24.1832609 27.4369565,23.3902174 C27.9782609,22.5886957 28.4458696,21.7284783 28.8195652,20.8395652 C29.2023913,19.935 29.4984783,18.986087 29.6967391,18.0228261 C29.8976087,17.0354348 30,16.0193478 30,14.9993478 C30,13.9832609 29.8976087,12.9678261 29.6967391,11.9817391 M27.8073913,14.8728261 C27.6215217,14.8323913 23.2865217,13.8991304 18.885,14.4528261 C18.7930435,14.2343478 18.7036957,14.013913 18.6078261,13.7928261 C18.3417391,13.1647826 18.0541304,12.5445652 17.756087,11.9341304 C22.815,9.86869565 24.8686957,6.9 24.8934783,6.86478261 C26.688913,9.04695652 27.7773913,11.8336957 27.8073913,14.8728261 M23.4606522,5.38891304 C23.4293478,5.43652174 21.6052174,8.21413043 16.7686957,10.0258696 C14.5793478,6.0026087 12.1728261,2.80695652 11.9804348,2.5526087 C12.948913,2.31782609 13.9597826,2.19130435 15.0006522,2.19130435 C18.2432609,2.19130435 21.2047826,3.40108696 23.4606522,5.38891304 M11.9315217,2.56304348 C11.9315217,2.565 11.9295652,2.56630435 11.9295652,2.56630435 C11.9295652,2.56630435 11.913913,2.57021739 11.891087,2.57347826 C11.9047826,2.57021739 11.9171739,2.56826087 11.9315217,2.56304348 M9.53413043,3.41673913 C9.70565217,3.64434783 12.0743478,6.85630435 14.2917391,10.7967391 C8.14043478,12.431087 2.80108696,12.3658696 2.46391304,12.3613043 C3.29543478,8.39282609 5.96021739,5.10326087 9.53413043,3.41673913 M2.18869565,14.9993478 C2.18869565,14.8636957 2.19586957,14.7293478 2.19978261,14.5956522 C2.4273913,14.6008696 8.75608696,14.7436957 15.3515217,12.7702174 C15.7186957,13.4882609 16.0695652,14.22 16.391087,14.9484783 C16.2215217,14.9941304 16.053913,15.0456522 15.8863043,15.1017391 C8.97326087,17.3347826 5.46652174,23.553913 5.46652174,23.553913 C5.46652174,23.553913 5.47173913,23.5591304 5.47173913,23.5604348 C3.43108696,21.2908696 2.18869565,18.2902174 2.18869565,14.9993478 M15.0006522,27.8113043 C11.8995652,27.8113043 9.05608696,26.7097826 6.83869565,24.8752174 C7.00826087,25.0128261 7.12630435,25.098913 7.12630435,25.098913 C7.12630435,25.098913 9.58173913,19.743913 17.1795652,17.0967391 C17.2076087,17.0863043 17.2376087,17.0791304 17.2656522,17.07 C19.0682609,21.7532609 19.811087,25.676087 20.0015217,26.7952174 C18.465,27.4480435 16.773913,27.8113043 15.0006522,27.8113043 M22.158913,25.623913 C22.0284783,24.8523913 21.3456522,21.0913043 19.6643478,16.4758696 C23.801087,15.8145652 27.3841304,16.9486957 27.6482609,17.0354348 C27.0782609,20.6047826 25.0343478,23.6823913 22.158913,25.623913" id="Fill-1" fill="#000000" mask="url(#mask-2)"></path>
            </g>
        </g>
    </g>
</svg>