<?xml version="1.0" encoding="UTF-8"?>
<svg width="38px" height="38px" viewBox="0 0 38 38" version="1.1" xmlns="http://www.w3.org/2000/svg" xmlns:xlink="http://www.w3.org/1999/xlink">
    <!-- Generator: Sketch 48.2 (47327) - http://www.bohemiancoding.com/sketch -->
    <title>ic_insta</title>
    <desc>Created with Sketch.</desc>
    <defs></defs>
    <g id="Main" stroke="none" stroke-width="1" fill="none" fill-rule="evenodd">
        <g id="ic_insta" fill="#000000">
            <path d="M19.5014531,3 C15.2918676,3 14.7635705,3.01840644 13.1102199,3.09364681 C11.4600985,3.1692101 10.3337535,3.4304524 9.34820154,3.81375848 C8.32874301,4.20965843 7.46396317,4.73924728 6.60241253,5.60112085 C5.74021604,6.46267149 5.21062719,7.32745133 4.81343556,8.34658694 C4.42916072,9.3324618 4.1675955,10.4591298 4.09332389,12.1086053 C4.0193752,13.7619559 4,14.2905759 4,18.5001615 C4,22.709747 4.01872936,23.2364295 4.09364681,24.8897801 C4.16953302,26.5399015 4.43077532,27.6662465 4.81375848,28.6517985 C5.20998135,29.671257 5.7395702,30.5360368 6.60144377,31.3975875 C7.46267149,32.259784 8.32745133,32.7906645 9.34626402,33.1865644 C10.3324618,33.5698705 11.4591298,33.8311128 13.1089282,33.9066761 C14.7622788,33.9819165 15.290253,34.0003229 19.4995156,34.0003229 C23.7094241,34.0003229 24.2361066,33.9819165 25.8894572,33.9066761 C27.5395785,33.8311128 28.6672153,33.5698705 29.6534131,33.1865644 C30.6725487,32.7906645 31.5360368,32.259784 32.3972646,31.3975875 C33.259461,30.5360368 33.7890499,29.671257 34.1862415,28.6521214 C34.5672872,27.6662465 34.8288524,26.5395785 34.9063532,24.890103 C34.9806248,23.2367525 35,22.709747 35,18.5001615 C35,14.2905759 34.9806248,13.7622788 34.9063532,12.1089282 C34.8288524,10.4588069 34.5672872,9.3324618 34.1862415,8.34690986 C33.7890499,7.32745133 33.259461,6.46267149 32.3972646,5.60112085 C31.5350681,4.73892436 30.6728716,4.20933551 29.6524443,3.81375848 C28.664309,3.4304524 27.5373181,3.1692101 25.8871967,3.09364681 C24.2338462,3.01840644 23.7074865,3 19.4966093,3 L19.5014531,3 Z M18.1109595,5.79325826 C18.5236513,5.79261242 18.9841353,5.79325826 19.5014531,5.79325826 C23.6399962,5.79325826 24.1305118,5.80811258 25.7648101,5.88238419 C27.2760758,5.95148908 28.0962927,6.20401254 28.6426734,6.416171 C29.3660142,6.69711143 29.8817175,7.03294826 30.4239002,7.57545391 C30.9664059,8.11795956 31.3022427,8.63463161 31.583829,9.35797248 C31.7959875,9.90370733 32.0488338,10.7239242 32.1176158,12.2351899 C32.1918874,13.8691653 32.2080334,14.3600038 32.2080334,18.4966093 C32.2080334,22.6332149 32.1918874,23.1240534 32.1176158,24.7580287 C32.0485109,26.2692945 31.7959875,27.0895113 31.583829,27.6352462 C31.3028886,28.3585871 30.9664059,28.8736445 30.4239002,29.4158272 C29.8813946,29.9583329 29.3663371,30.2941697 28.6426734,30.5751102 C28.0969385,30.7882374 27.2760758,31.040115 25.7648101,31.1092199 C24.1308347,31.1834915 23.6399962,31.1996375 19.5014531,31.1996375 C15.3625871,31.1996375 14.8720716,31.1834915 13.2380962,31.1092199 C11.7268305,31.0394692 10.9066136,30.7869457 10.35991,30.5747872 C9.63656913,30.2938468 9.11989708,29.95801 8.57739143,29.4155043 C8.03488578,28.8729987 7.69904895,28.3576183 7.41746268,27.6339545 C7.20530422,27.0882197 6.95245784,26.2680028 6.88367587,24.756737 C6.80940426,23.1227617 6.79454994,22.6319232 6.79454994,18.4927343 C6.79454994,14.3535453 6.80940426,13.8652903 6.88367587,12.2313149 C6.95278076,10.7200492 7.20530422,9.89983229 7.41746268,9.3534516 C7.69840311,8.63011073 8.03488578,8.11343868 8.57739143,7.57093303 C9.11989708,7.02842738 9.63656913,6.69259055 10.35991,6.41100428 C10.9062907,6.19787706 11.7268305,5.94599944 13.2380962,5.87657163 C14.6679861,5.81198762 15.2221169,5.79261242 18.1109595,5.78938322 L18.1109595,5.79325826 Z M27.7753102,8.36693091 C26.7484245,8.36693091 25.9152908,9.19909582 25.9152908,10.2263044 C25.9152908,11.2531901 26.7484245,12.0863238 27.7753102,12.0863238 C28.8021959,12.0863238 29.6353295,11.2531901 29.6353295,10.2263044 C29.6353295,9.19941874 28.8021959,8.36628507 27.7753102,8.36628507 L27.7753102,8.36693091 Z M19.5014531,10.5401827 C15.1055428,10.5401827 11.5414744,14.1042511 11.5414744,18.5001615 C11.5414744,22.8960718 15.1055428,26.4585256 19.5014531,26.4585256 C23.8973635,26.4585256 27.4601402,22.8960718 27.4601402,18.5001615 C27.4601402,14.1042511 23.8970406,10.5401827 19.5011302,10.5401827 L19.5014531,10.5401827 Z M19.5014531,13.333441 C22.3547745,13.333441 24.6681736,15.6465172 24.6681736,18.5001615 C24.6681736,21.3534828 22.3547745,23.6668819 19.5014531,23.6668819 C16.6478088,23.6668819 14.3347327,21.3534828 14.3347327,18.5001615 C14.3347327,15.6465172 16.6478088,13.333441 19.5014531,13.333441 L19.5014531,13.333441 Z" id="ic_insta-copy"></path>
        </g>
    </g>
</svg>