<?xml version="1.0" encoding="UTF-8"?>
<svg width="38px" height="38px" viewBox="0 0 38 38" version="1.1" xmlns="http://www.w3.org/2000/svg" xmlns:xlink="http://www.w3.org/1999/xlink">
    <!-- Generator: Sketch 48.2 (47327) - http://www.bohemiancoding.com/sketch -->
    <title>ic_linkedin</title>
    <desc>Created with Sketch.</desc>
    <defs></defs>
    <g id="Main" stroke="none" stroke-width="1" fill="none" fill-rule="evenodd">
        <g id="ic_linkedin" fill="#000000">
            <path d="M11.5306421,13.9310014 L11.5306421,32.4573605 L5.36461264,32.4573605 L5.36461264,13.9310014 L11.5306421,13.9310014 Z M11.9367524,8.20005109 C11.9367524,9.9789229 10.597746,11.4023155 8.44775053,11.4023155 L8.40834626,11.4023155 C6.33826754,11.4023155 5,9.9789229 5,8.20005109 C5,6.38355331 6.37902633,5 8.48838618,5 C10.597746,5 11.8967324,6.38355331 11.9367524,8.20005109 Z M33.7677034,21.8349124 L33.7674571,32.4573605 L27.6016739,32.4573605 L27.6016739,22.5457479 C27.6016739,20.0561635 26.7094134,18.3573391 24.4772846,18.3573391 C22.7737888,18.3573391 21.7591288,19.5025946 21.3134911,20.6087487 C21.150456,21.0051739 21.110436,21.5575131 21.110436,22.111205 L21.110436,32.4578524 L14.9436677,32.4578524 C14.9436677,32.4578524 15.024939,15.669911 14.9436677,13.9314932 L21.110436,13.9314932 L21.110436,16.5555966 C21.9288134,15.2941432 23.3945292,13.4959666 26.6682852,13.4959666 C30.7258168,13.4959666 33.7677034,16.1444161 33.7677034,21.8349124 Z" id="ic_linkedin-copy"></path>
        </g>
    </g>
</svg>